<?xml version="1.0" encoding="UTF-8"?>
<svg id="b" data-name="Layer 2" xmlns="http://www.w3.org/2000/svg" viewBox="0 0 247.06 383.22">
  <g id="c" data-name="Layer 1">
    <g>
      <path d="M218.46,0c6.32,3.18,8.27,8.39,8.24,15.29-.18,43.52,.03,87.03-.15,130.55-.09,21.01-5.72,40.52-17.62,58.02-2.51,3.69-5.19,7.27-7.79,10.91-10.63,10.76-22.45,19.89-36.22,26.34-13.25,5.66-27.18,8.06-41.47,8.79,0-.24,0-.49,0-.73,0-8.23,0-16.46,0-24.68,6.82-.48,11.19-5.06,11.21-11.81,.02-5.96,0-11.93-.01-17.89,.92-.36,1.85-.7,2.76-1.09,20.61-8.83,24.1-33.56,6.61-46.83-6.06-4.6-13.09-6.29-20.5-6.82-.02-30.88-.04-61.77-.06-92.65,11.95-.07,23.91-.31,35.85-.1,3.83,.07,5.65-.94,6.83-4.73,4.31-13.89,12.61-24.95,24.64-33.22,6.42-4.41,13.66-6.89,20.95-9.32h6.73Zm-49.96,130.94c6.11-.09,11.09-5.19,11.05-11.3-.04-6.11-5.09-11.13-11.2-11.14-6.26,0-11.38,5.23-11.23,11.48,.14,6.1,5.29,11.05,11.39,10.96Z" style="fill: #fec373;"/>
      <path d="M123.46,47.38c.02,30.88,.04,61.77,.06,92.65,0,0,.06,.31,.06,.31-3.11,.1-6.19,.34-9.23,1.12-16.42,4.19-26.14,19.57-21.5,34.43,3.02,9.66,10.23,15.29,19.35,18.82,0,5.98,0,11.95,.02,17.93,.03,6.79,4.37,11.36,11.22,11.84h0c0,8.23,0,16.45,0,24.68-12.61,.39-24.72-1.93-36.45-6.5-1.32-.51-2.7-1.4-4.25-.57l.19-.23c-.08-.76-.65-.88-1.24-.97-10.67-5.57-20.87-11.81-29.61-20.25-2.11-2.03-3.58-4.78-6.44-6.02-1.79-2.54-3.53-5.1-5.36-7.6-14.08-19.18-19.91-40.91-19.92-64.43-.01-42.6,.04-85.2-.05-127.81-.01-6.88,2.05-12.17,8.87-14.77h5.24c6.76,2.06,13.45,4.25,19.5,8.04,12.46,7.82,21.15,18.66,26.09,32.52q2.38,6.68,9.5,6.68c11.32,.03,22.64,.09,33.96,.14Zm-44.74,83.56c6.07-.09,11.09-5.21,11.05-11.29-.04-6.08-5.12-11.13-11.2-11.14-6.24-.01-11.38,5.24-11.24,11.48,.13,6.07,5.3,11.05,11.38,10.96Z" style="fill: #fee370;"/>
      <path d="M123.47,382.98c-21.68,.04-43.36,.09-65.03,.12-14.45,.02-28.91-.24-43.36,.11-6.97,.17-12.11-1.82-15.08-8.34v-71.83c.92-.57,.65-1.53,.74-2.36,.6-5.32,1.44-10.6,2.67-15.81,6.49-27.53,20.41-50.62,41.54-69.39,1.37,1.54,1.65,3.56,2.34,5.39,5.28,13.89,11.6,27.25,20.12,39.47,8.5,12.19,18.4,22.89,32.06,29.5-2.85,2.58-5.54,5.35-8.58,7.68-3.35,2.57-4.88,5.76-4.86,9.89,.04,6.22,0,12.44,.01,18.66,.02,7.41,4.68,12.11,12.06,12.13,8.46,.03,16.92,.03,25.38,.04,0,14.91,0,29.82,0,44.74Z" style="fill: #fea950;"/>
      <path d="M123.47,382.98c0-14.91,0-29.82,0-44.74,0,0-.04-.06-.04-.06,8.57,0,17.15,.04,25.72,.02,7.23-.02,11.65-4.38,11.69-11.54,.04-6.21-.23-12.44,.08-18.64,.26-5.19-2.04-8.72-5.92-11.68-2.53-1.93-5.01-3.97-7.01-6.49,7.09-3.76,13.47-8.48,19.06-14.26,16.53-17.11,26.82-37.8,34.39-60.04,5.13,3.01,8.86,7.58,12.65,11.95,18.48,21.26,29.59,45.83,32.09,74.01,1.71,19.27,.35,38.6,.71,57.91,.08,4.36,.11,8.73-.01,13.09-.16,5.77-4.76,10.56-10.5,10.56-37.63,.03-75.26-.04-112.9-.08Z" style="fill: #fe823c;"/>
      <path d="M201.43,215.54c-7.57,22.24-17.85,42.93-34.39,60.04-5.59,5.78-11.96,10.5-19.06,14.26-2.27-.87-3.76-2.78-5.6-4.22-5.34-4.19-9.87-9.43-16.04-12.56,7.63-1.33,14.46-4.42,20.33-9.48,7.43-6.39,13.45-13.95,18.25-22.49,13.77-6.45,25.58-15.58,36.22-26.34,.1,.26,.19,.52,.29,.78Z" style="fill: #324286;"/>
      <path d="M123.52,140.03c7.41,.53,14.44,2.23,20.5,6.82,17.49,13.27,14,38-6.61,46.83-.91,.39-1.84,.73-2.76,1.09-3.63,1.1-7.37,1.55-11.12,1.94-.04-.17-.1-.35-.16-.51,.03-2.11,.07-4.22,.07-6.33,.05-16.51,.1-33.01,.14-49.52l-.06-.31Z" style="fill: #314287;"/>
      <path d="M82.74,242.08c1.55-.83,2.94,.05,4.25,.57,11.73,4.57,23.85,6.89,36.45,6.5,0,.24,0,.49,0,.73,0,7.73,.01,15.46,.02,23.19-.83,.03-1.67,.06-2.5,.1-18.58-3.18-29.36-15.96-38.22-31.09Z" style="fill: #fda950;"/>
      <path d="M123.47,273.07c0-7.73-.01-15.46-.02-23.19,14.29-.73,28.23-3.12,41.48-8.79-4.8,8.54-10.82,16.09-18.25,22.49-5.88,5.06-12.7,8.15-20.33,9.48-.97,.02-1.95,.05-2.92,.07l.04-.06Z" style="fill: #fe823c;"/>
      <path d="M168.5,130.94c-6.1,.09-11.24-4.85-11.39-10.96-.15-6.25,4.98-11.49,11.23-11.48,6.11,0,11.16,5.03,11.2,11.14,.04,6.11-4.94,11.21-11.05,11.3Z" style="fill: #324286;"/>
      <path d="M123.53,196.7c3.75-.39,7.49-.84,11.12-1.94,0,5.96,.03,11.93,.01,17.89-.02,6.75-4.4,11.34-11.21,11.81,0,0,0,0,0,0,.03-9.26,.05-18.52,.08-27.77Z" style="fill: #fda950;"/>
      <path d="M82.74,242.08c8.86,15.13,19.64,27.91,38.23,31.09-3.11,1.28-5.67,3.34-8.19,5.53-4.37,3.79-8.87,7.43-13.32,11.14-13.66-6.6-23.56-17.31-32.06-29.5-8.52-12.22-14.83-25.59-20.12-39.47-.7-1.83-.97-3.85-2.34-5.39,.23-.29,.46-.58,.69-.87,2.86,1.24,4.33,3.98,6.44,6.02,8.74,8.44,18.94,14.68,29.61,20.25,.2,.61,.45,1.13,1.24,.97l-.19,.23Z" style="fill: #6175b0;"/>
      <path d="M123.58,140.34c-.05,16.51-.09,33.01-.14,49.52,0,2.11-.05,4.22-.07,6.33-3.82,.24-7.51-.45-11.16-1.48-9.12-3.53-16.33-9.16-19.35-18.82-4.65-14.86,5.08-30.24,21.5-34.43,3.03-.77,6.12-1.02,9.23-1.12Z" style="fill: #6075b1;"/>
      <path d="M78.72,130.94c-6.08,.09-11.25-4.89-11.38-10.96-.14-6.24,5-11.49,11.24-11.48,6.08,0,11.16,5.07,11.2,11.14,.04,6.08-4.98,11.21-11.05,11.29Z" style="fill: #6175b0;"/>
      <path d="M112.21,194.7c3.65,1.03,7.34,1.72,11.16,1.48,.07,.17,.12,.34,.16,.51-.03,9.26-.05,18.52-.08,27.77-6.85-.48-11.2-5.05-11.22-11.84-.02-5.98-.01-11.95-.02-17.93Z" style="fill: #fec372;"/>
      <path d="M82.93,241.85c-.8,.17-1.05-.36-1.24-.97,.6,.09,1.17,.21,1.24,.97Z" style="fill: #fda950;"/>
      <path d="M99.46,289.84c4.45-3.7,8.95-7.34,13.32-11.14,2.52-2.19,5.08-4.25,8.19-5.53,.83-.03,1.67-.06,2.5-.1,0,0-.04,.06-.04,.06,0,21.68,0,43.36,0,65.04,0,0,.04,.06,.04,.06-8.46-.01-16.92-.02-25.38-.04-7.37-.02-12.04-4.72-12.06-12.13-.02-6.22,.03-12.44-.01-18.66-.03-4.13,1.51-7.33,4.86-9.89,3.04-2.33,5.73-5.1,8.58-7.68Z" style="fill: #fee370;"/>
      <path d="M123.43,338.18c0-21.68,0-43.36,0-65.04,.97-.02,1.95-.05,2.92-.07,6.18,3.13,10.7,8.36,16.04,12.56,1.84,1.44,3.33,3.35,5.6,4.22,2,2.52,4.48,4.56,7.01,6.49,3.89,2.97,6.18,6.49,5.92,11.68-.31,6.2-.04,12.42-.08,18.64-.04,7.16-4.46,11.52-11.69,11.54-8.57,.02-17.15-.01-25.72-.02Z" style="fill: #fec372;"/>
    </g>
  </g>
</svg>