<?xml version="1.0" encoding="UTF-8"?>
<svg id="b" data-name="Layer 2" xmlns="http://www.w3.org/2000/svg" xmlns:xlink="http://www.w3.org/1999/xlink" viewBox="0 0 412.71 368.08">
  <defs>
    <radialGradient id="d" cx="206.36" cy="184.04" fx="239.2" fy="206.1" r="195.52" gradientUnits="userSpaceOnUse">
      <stop offset="0" stop-color="#5889d6"/>
      <stop offset=".11" stop-color="#5b87d4"/>
      <stop offset=".23" stop-color="#6784d0"/>
      <stop offset=".34" stop-color="#7b7eca"/>
      <stop offset=".46" stop-color="#9776c0"/>
      <stop offset=".49" stop-color="#a373bd"/>
      <stop offset=".58" stop-color="#a572b9"/>
      <stop offset=".66" stop-color="#ae70ad"/>
      <stop offset=".75" stop-color="#bc6d99"/>
      <stop offset=".82" stop-color="#cf6981"/>
      <stop offset=".87" stop-color="#d16c7c"/>
      <stop offset=".92" stop-color="#d87570"/>
      <stop offset=".97" stop-color="#e4845c"/>
      <stop offset="1" stop-color="#f0924a"/>
    </radialGradient>
  </defs>
  <g id="c" data-name="Layer 1">
    <path d="M293.91,222.84c.03,7.6-5.17,12.26-12.01,15.07-15.74,6.46-31.31,13.72-47.59,18.42-27.39,7.92-44.06,24.92-52.22,52.05-4.89,16.25-12.05,31.82-18.4,47.61-2.82,7.02-7.72,11.85-15.82,12.07-8.81,.24-13.93-4.71-17.53-12.27-7.59-15.96-13.68-32.43-18.77-49.35-7.69-25.51-24.19-42.01-50.17-49.75-16.27-4.85-31.94-11.77-47.76-18.06C6.18,235.67,.23,230.83,0,221.94c-.24-9.67,5.97-14.51,13.98-18.29,14.91-7.04,30.21-12.97,46.06-17.46,27.18-7.69,44.68-25,52.13-52.28,4.51-16.5,11.07-32.19,18.3-47.64,3.52-7.51,8.9-12.58,17.63-12.23,7.98,.32,12.44,5.55,15.74,12.32,7.76,15.89,14.16,32.33,18.93,49.31,7.34,26.12,24.29,42.43,49.85,50.01,16.95,5.02,33.39,11.24,49.38,18.71,7.55,3.53,12.37,8.86,11.9,18.45Zm60.96-162.14c-25.78-5.27-41.3-19.9-46.95-45.85-1.32-6.08-2.86-15.37-12.28-14.82-8,.46-9.45,8.81-10.76,14.53-5.66,24.8-19.52,40.43-45.1,45.52-6.49,1.29-15.64,3.51-15.71,11.78-.07,8.35,9.13,10.44,15.58,11.92,24.12,5.52,39.38,18.82,44.59,43.81,1.34,6.43,2.5,16.9,12.86,16.31,8.79-.5,10-9.91,11.34-16.02,5.38-24.63,20-38.87,44.4-43.94,3.92-.82,7.75-2.84,11.17-5.02,2.29-1.46,3.77-4.18,5.21-5.87-1.52-8.89-8.54-11.15-14.35-12.34Zm50.78,113.15c-12.68-2.59-20.32-9.79-23.1-22.56-.65-2.99-1.41-7.56-6.04-7.29-3.94,.23-4.65,4.34-5.29,7.15-2.79,12.2-9.61,19.9-22.19,22.4-3.19,.64-7.69,1.73-7.73,5.79-.04,4.11,4.49,5.14,7.67,5.87,11.87,2.72,19.38,9.26,21.94,21.56,.66,3.16,1.23,8.32,6.33,8.02,4.33-.25,4.92-4.87,5.58-7.88,2.65-12.12,9.84-19.13,21.85-21.62,1.93-.4,3.82-1.4,5.5-2.47,1.12-.72,1.85-2.06,2.56-2.89-.75-4.38-4.2-5.49-7.06-6.07Z" style="fill: url(#d);"/>
  </g>
</svg>